<svg width="405" height="388" viewBox="0 0 405 388" fill="none" xmlns="http://www.w3.org/2000/svg">
<path d="M404.797 127.85L387.813 225.055C385.718 235.793 377.143 242.322 367.253 242.445H119.644L114.728 270.09H350.717C363.143 271.032 371.572 279.814 371.723 291.047C370.819 303.418 362.017 311.85 350.717 312.004H89.6984C75.5818 310.737 67.1642 299.511 68.6917 287.034L79.8653 226.392L62.8813 56.06L14.611 40.9005C2.81505 36.2281 -1.99939 25.5821 0.755627 14.5928C5.33652 3.13979 16.313 -2.09294 27.1255 0.770061L88.8043 20.3895C97.1136 23.4969 101.894 30.2825 103.107 38.2254L106.682 72.1133L386.472 103.326C399.327 106.104 406.306 116.263 404.797 127.85V127.85ZM153.654 356.007C153.654 373.676 139.297 388 121.586 388C103.875 388 89.5175 373.676 89.5175 356.007C89.5175 338.338 103.875 324.014 121.586 324.014C139.297 324.014 153.654 338.338 153.654 356.007ZM345.102 356.007C345.102 373.676 330.744 388 313.033 388C295.322 388 280.965 373.676 280.965 356.007C280.965 338.338 295.322 324.014 313.033 324.014C330.744 324.014 345.102 338.338 345.102 356.007Z" fill="#050505"/>
</svg>
