<svg width="71" height="72" viewBox="0 0 71 72" fill="none" xmlns="http://www.w3.org/2000/svg">
<g clip-path="url(#clip0)">
<path d="M16.6064 50.8601L17.338 51.5783C20.2695 54.9344 24.0124 57.2659 28.084 58.578C40.8803 62.7015 54.7291 55.5889 58.8592 42.7722C60.8304 36.6553 60.2825 29.8872 57.3283 24.1121C54.3739 18.3369 49.3551 13.9867 43.1026 11.9719C30.3063 7.84832 16.4573 14.9608 12.4257 27.9701C11.0178 32.3393 10.9654 36.9849 11.9732 41.3287L12.2732 42.3901L7.17769 50.2334L16.6064 50.8601Z" fill="#00D555"/>
<path d="M60.5513 22.5783C57.2499 15.8877 51.3074 10.918 44.3275 8.66879C29.4956 3.8893 13.6763 12.1353 9.0814 26.8921C7.57953 31.5528 7.43326 36.4897 8.30049 41.2705L0.0610136 53.8884L15.3393 54.7925C18.5614 58.2425 22.5951 60.6677 26.9577 62.0735C41.6443 66.8062 57.4637 58.56 62.2038 43.8502C64.5036 36.7135 63.8996 29.1234 60.5515 22.5784L60.5513 22.5783ZM28.5579 57.6054C24.6318 56.3403 21.0342 54.0558 18.3467 50.939L17.6151 50.2208L8.47731 49.6877L13.3336 42.0889L13.0336 41.0275C9.96758 28.6251 17.4331 15.9182 29.9679 12.8836C42.5026 9.84913 55.0403 17.2656 58.0594 29.8137C61.0782 42.3618 53.6597 54.9227 41.1252 57.9575C37.0765 59.0642 32.6296 58.9173 28.558 57.6052L28.5579 57.6054ZM46.5637 45.5626L45.1989 44.3189C45.1989 44.3189 43.201 42.5497 41.9815 41.3529C41.836 41.306 41.7377 41.1134 41.5921 41.0665C41.1558 40.9259 40.8181 40.9779 40.4803 41.03C40.4803 41.03 40.2881 41.1287 37.5014 42.803C37.262 43.0474 36.9243 43.0994 36.6334 43.0057L36.4879 42.9588C36.3426 42.912 36.0988 42.6725 36.0002 42.4801L35.367 41.9545C34.0021 40.7108 32.8298 39.3683 32.0418 37.8283C31.8448 37.4433 31.5024 37.0115 31.3055 36.6265C30.6161 35.279 29.9737 33.7857 29.6692 32.2407L29.6175 31.9025C29.5192 31.7099 29.5661 31.5644 29.5145 31.2263C29.6083 30.935 29.7022 30.6437 29.8946 30.5449C29.8946 30.5449 30.7109 30.004 31.2878 29.7078C31.6727 29.5101 31.9588 29.1201 32.3434 28.9225C32.775 28.5793 33.1083 28.0436 33.1036 27.5597C33.193 26.7846 32.7151 22.2899 32.5606 21.2756C32.4104 20.7448 32.1667 20.5057 31.7774 20.2193L30.1779 19.7039C29.8869 19.6101 29.5493 19.6622 29.2583 19.5684L29.0659 19.6671C28.7282 19.7191 28.3435 19.9167 28.0058 19.9685C27.6211 20.1662 27.3818 20.4104 26.997 20.6082C25.5567 21.591 24.4589 23.0056 23.9426 24.6077C23.5672 25.7727 23.4825 27.0317 23.5903 28.1918L23.5949 28.6757C24.012 31.8645 24.9589 34.9029 26.5817 37.8373L26.9756 38.6072C27.2709 39.1847 27.6133 39.6166 27.7634 40.1471C29.9722 43.7529 32.8519 46.7708 36.4495 49.0556C36.8389 49.3417 37.4205 49.5291 37.8099 49.8154L39.2639 50.284C39.991 50.5183 40.9572 50.5081 41.6329 50.4044C42.1629 50.2536 42.4537 50.3473 42.8383 50.1498L43.2232 49.9521C43.6079 49.7545 43.9456 49.7027 44.3303 49.5052C44.7149 49.3076 45.0996 49.11 45.339 48.8655C45.8175 48.3766 46.1975 47.6952 46.5776 47.014L46.9062 45.9945C46.9062 45.9945 46.8076 45.8019 46.5637 45.5626Z" fill="white"/>
</g>
<defs>
<clipPath id="clip0">
<rect width="56.0679" height="56.8155" fill="white" transform="translate(17.4263) rotate(17.8613)"/>
</clipPath>
</defs>
</svg>
