<svg width="160" height="319" viewBox="0 0 160 319" fill="none" xmlns="http://www.w3.org/2000/svg">
<path d="M26.6667 319C34 319 40 313.019 40 305.708C40 298.398 34 292.417 26.6667 292.417C19.3333 292.417 13.3333 298.398 13.3333 305.708C13.3333 313.019 19.3333 319 26.6667 319ZM80 319C87.3333 319 93.3333 313.019 93.3333 305.708C93.3333 298.398 87.3333 292.417 80 292.417C72.6667 292.417 66.6667 298.398 66.6667 305.708C66.6667 313.019 72.6667 319 80 319ZM133.333 319C140.667 319 146.667 313.019 146.667 305.708C146.667 298.398 140.667 292.417 133.333 292.417C126 292.417 120 298.398 120 305.708C120 313.019 126 319 133.333 319ZM133.333 0.132917L26.6667 0C12 0 0 11.9625 0 26.5833V239.25C0 253.871 12 265.833 26.6667 265.833H133.333C148 265.833 160 253.871 160 239.25V26.5833C160 11.9625 148 0.132917 133.333 0.132917V0.132917ZM133.333 212.667H26.6667V53.1667H133.333V212.667Z" fill="#0096D2"/>
</svg>
